# xmcd
#
# Track frame offsets: 
#        150
#        10736
#        28835
#        40580
#        55170
#        60503
#        69423
#        86099
#        101989
#        117845
#        132808
#        143669
#        157783
#
# Disc length: 2316 seconds
#
# Revision: 0
# Processed by: cddbd v1.5.2PL0 Copyright (c) Steve Scherf et al.
# Submitted via: ExactAudioCopy v0.95b3
#
DISCID=a2090a0d
DTITLE=The Schomberg Fair - Dark Was The Night Cold Was The Ground
DYEAR=2008
DGENRE=Alt. Rock
TTITLE0=Dark Was The Night Cold Was The Ground
TTITLE1=Magdalene
TTITLE2=Last Train
TTITLE3=Poor Me
TTITLE4=I'm On Fire
TTITLE5=February Floats
TTITLE6=Map of the World
TTITLE7=Wade in the Water
TTITLE8=Some Things Never Change
TTITLE9=Head Up Horizon
TTITLE10=Hobo Song
TTITLE11=John the Revelator
TTITLE12=The Autumn Wind
EXTD=
EXTT0=
EXTT1=
EXTT2=
EXTT3=
EXTT4=
EXTT5=
EXTT6=
EXTT7=
EXTT8=
EXTT9=
EXTT10=
EXTT11=
EXTT12=
PLAYORDER=
